#!OML:ASF H:\Dans Jumps\Project 1\Capture day 1\Session 1\subject.ASF
:FULLY-SPECIFIED
:DEGREES
621
root 0.721743 17.6661 3.35696 6.3021 -0.56268 -1.45834
lowerback -3.03862 -0.200402 -0.129031
upperback 1.90529 -0.329921 1.99586
thorax 3.67887 -0.194365 2.10933
lowerneck -12.5433 -0.0198748 -2.18701
upperneck 14.1562 0.291476 0.638002
head 6.36294 0.0755115 0.588402
rclavicle -1.04362e-015 -7.95139e-015
rhumerus -23.4683 -18.3062 -81.5437
rradius 22.8126
rwrist 36.0701
rhand -20.0242 -26.0176
rfingers 7.12502
rthumb 6.31649 -55.9035
lclavicle -1.04362e-015 -7.95139e-015
lhumerus -21.1252 1.4846 88.9144
lradius 17.5729
lwrist 1.80255
lhand -25.9156 -5.02825
lfingers 7.12502
lthumb 0.627225 24.9506
rfemur -12.2607 -2.34856 20.3654
rtibia 22.9831
rfoot -15.2787 -1.36575
rtoes 12.9199
lfemur -11.5525 5.64028 -17.9653
ltibia 20.0269
lfoot -11.8611 4.52587
ltoes -3.69738
622
root 0.723215 17.6662 3.35565 6.28525 -0.544306 -1.46063
lowerback -3.03952 -0.198639 -0.135145
upperback 1.90061 -0.327347 1.99986
thorax 3.67451 -0.193242 2.11705
lowerneck -12.5437 -0.0264642 -2.18883
upperneck 14.1412 0.281366 0.647205
head 6.35835 0.0713892 0.590678
rclavicle 4.62174e-015 -1.59028e-015
rhumerus -23.3769 -18.2102 -81.6004
rradius 22.8474
rwrist 36.0086
rhand -20.0423 -26.0091
rfingers 7.12502
rthumb 6.29901 -55.8955
lclavicle 4.62174e-015 -1.59028e-015
lhumerus -21.1291 1.47188 88.9185
lradius 17.5789
lwrist 1.80213
lhand -25.8857 -4.99531
lfingers 7.12502
lthumb 0.656096 24.9834
rfemur -12.2423 -2.35934 20.3631
rtibia 22.9785
rfoot -15.2733 -1.3706
rtoes 12.9135
lfemur -11.5406 5.63466 -17.9664
ltibia 20.0236
lfoot -11.8557 4.51359
ltoes -3.70338
623
root 0.724755 17.6662 3.35432 6.27066 -0.528547 -1.46671
lowerback -3.04197 -0.195205 -0.136648
upperback 1.89309 -0.322739 2.00436
thorax 3.66798 -0.190969 2.12281
lowerneck -12.54 -0.0265416 -2.16777
upperneck 14.1308 0.278642 0.6377
head 6.35445 0.0704901 0.58391
rclavicle -1.73937e-015 -1.19271e-015
rhumerus -23.2954 -18.1093 -81.6545
rradius 22.8918
rwrist 35.9343
rhand -20.056 -26.0094
rfingers 7.12502
rthumb 6.28571 -55.8961
lclavicle -1.73937e-015 -1.19271e-015
lhumerus -21.1367 1.45568 88.923
lradius 17.5799
lwrist 1.79743
lhand -25.8569 -4.96634
lfingers 7.12502
lthumb 0.683919 25.0123
rfemur -12.226 -2.36772 20.3645
rtibia 22.9721
rfoot -15.2659 -1.37482
rtoes 12.9131
lfemur -11.5322 5.63008 -17.964
ltibia 20.0226
lfoot -11.8525 4.50463
ltoes -3.71133
624
root 0.726361 17.6663 3.35304 6.25742 -0.516589 -1.47515
lowerback -3.04653 -0.189597 -0.13483
upperback 1.88423 -0.315379 2.00886
thorax 3.66113 -0.187233 2.12686
lowerneck -12.5402 -0.0248616 -2.14497
upperneck 14.1262 0.278253 0.627106
head 6.35308 0.0706902 0.576745
rclavicle -1.2424e-015 7.15625e-015
rhumerus -23.2244 -18.0002 -81.7066
rradius 22.949
rwrist 35.8451
rhand -20.0589 -26.0239
rfingers 7.12502
rthumb 6.28293 -55.9107
lclavicle -1.2424e-015 7.15625e-015
lhumerus -21.1478 1.44235 88.9269
lradius 17.5746
lwrist 1.77535
lhand -25.8347 -4.94944
lfingers 7.12502
lthumb 0.705375 25.0291
rfemur -12.211 -2.3742 20.3679
rtibia 22.9643
rfoot -15.2578 -1.37653
rtoes 12.9146
lfemur -11.5249 5.62769 -17.9597
ltibia 20.0226
lfoot -11.851 4.4981
ltoes -3.71627
625
root 0.728018 17.6664 3.35179 6.24513 -0.507899 -1.48229
lowerback -3.0527 -0.183336 -0.134136
upperback 1.87455 -0.307086 2.01296
thorax 3.6543 -0.183049 2.1312
lowerneck -12.5474 -0.0202041 -2.12194
upperneck 14.1309 0.282196 0.615614
head 6.35582 0.072869 0.569689
rclavicle -1.83876e-015 -4.37326e-015
rhumerus -23.1593 -17.8995 -81.7536
rradius 23.0085
rwrist 35.7619
rhand -20.0562 -26.0459
rfingers 7.12502
rthumb 6.28552 -55.9326
lclavicle -1.83876e-015 -4.37326e-015
lhumerus -21.1624 1.42981 88.9296
lradius 17.5676
lwrist 1.7477
lhand -25.8155 -4.94052
lfingers 7.12502
lthumb 0.72396 25.038
rfemur -12.1969 -2.37974 20.3696
rtibia 22.9556
rfoot -15.2494 -1.3763
rtoes 12.9167
lfemur -11.517 5.62599 -17.9571
ltibia 20.022
lfoot -11.8492 4.49341
ltoes -3.73059
626
root 0.729743 17.6665 3.35055 6.23425 -0.501391 -1.48854
lowerback -3.06227 -0.176204 -0.133676
upperback 1.86562 -0.297641 2.01644
thorax 3.65013 -0.178308 2.13508
lowerneck -12.5513 -0.0177766 -2.11345
upperneck 14.1343 0.283768 0.616816
head 6.35754 0.0741737 0.568842
rclavicle -7.95139e-016 5.56597e-015
rhumerus -23.0943 -17.8151 -81.7953
rradius 23.0613
rwrist 35.6887
rhand -20.056 -26.062
rfingers 7.12502
rthumb 6.28578 -55.9487
lclavicle -7.95139e-016 5.56597e-015
lhumerus -21.1787 1.40764 88.9332
lradius 17.5594
lwrist 1.72468
lhand -25.8002 -4.93897
lfingers 7.12502
lthumb 0.738752 25.0395
rfemur -12.185 -2.38306 20.3698
rtibia 22.9476
rfoot -15.2417 -1.37593
rtoes 12.9232
lfemur -11.5088 5.62447 -17.9558
ltibia 20.0193
lfoot -11.8473 4.48941
ltoes -3.73928
627
root 0.731528 17.6665 3.34923 6.22495 -0.497123 -1.49287
lowerback -3.07438 -0.168832 -0.134698
upperback 1.85847 -0.28784 2.01914
thorax 3.64923 -0.173443 2.13903
lowerneck -12.5597 -0.0185419 -2.1212
upperneck 14.1395 0.282044 0.631575
head 6.36063 0.0741234 0.574699
rclavicle -1.2424e-015 -1.27222e-014
rhumerus -23.0271 -17.7409 -81.835
rradius 23.1101
rwrist 35.6191
rhand -20.0634 -26.0766
rfingers 7.12502
rthumb 6.27858 -55.9635
lclavicle -1.2424e-015 -1.27222e-014
lhumerus -21.194 1.37483 88.9373
lradius 17.5528
lwrist 1.71212
lhand -25.7878 -4.92938
lfingers 7.12502
lthumb 0.750662 25.049
rfemur -12.1764 -2.38572 20.3677
rtibia 22.9414
rfoot -15.2348 -1.37382
rtoes 12.9332
lfemur -11.5013 5.62112 -17.9566
ltibia 20.0145
lfoot -11.8435 4.48622
ltoes -3.73184
